<?xml version="1.0" encoding="UTF-8" standalone="no"?>
<!-- Created with Inkscape (http://www.inkscape.org/) -->

<svg
   width="185mm"
   height="185mm"
   viewBox="0 0 185 185"
   version="1.1"
   id="svg5"
   xml:space="preserve"
   inkscape:version="1.3.1 (9b9bdc1480, 2023-11-25, custom)"
   sodipodi:docname="logo_2025_light.svg"
   inkscape:export-filename="khanhgarage.png"
   inkscape:export-xdpi="103.471"
   inkscape:export-ydpi="103.471"
   xmlns:inkscape="http://www.inkscape.org/namespaces/inkscape"
   xmlns:sodipodi="http://sodipodi.sourceforge.net/DTD/sodipodi-0.dtd"
   xmlns="http://www.w3.org/2000/svg"
   xmlns:svg="http://www.w3.org/2000/svg"><sodipodi:namedview
     id="namedview7"
     pagecolor="#ffffff"
     bordercolor="#666666"
     borderopacity="1.0"
     inkscape:showpageshadow="2"
     inkscape:pageopacity="0.0"
     inkscape:pagecheckerboard="0"
     inkscape:deskcolor="#d1d1d1"
     inkscape:document-units="mm"
     showgrid="false"
     inkscape:zoom="1"
     inkscape:cx="485.5"
     inkscape:cy="345"
     inkscape:window-width="2560"
     inkscape:window-height="1011"
     inkscape:window-x="0"
     inkscape:window-y="32"
     inkscape:window-maximized="1"
     inkscape:current-layer="layer1" /><defs
     id="defs2"><rect
       x="-749.83728"
       y="-74.24131"
       width="675.59595"
       height="402.75912"
       id="rect3650" /></defs><g
     inkscape:label="Layer 1"
     inkscape:groupmode="layer"
     id="layer1"
     transform="translate(110.88601,-39.481341)"><path
       id="path10238"
       style="opacity:1;fill:none;fill-opacity:1;stroke:#313131;stroke-width:11.4;stroke-linecap:round;stroke-linejoin:round;stroke-miterlimit:7;stroke-dasharray:none;stroke-opacity:1"
       d="m -16.22726,57.62985 c -1.896087,-0.135535 -3.796402,-0.203447 -5.697327,-0.203605 -44.182594,1.3e-4 -79.999593,35.81717 -79.999723,79.999785 -1.6e-4,44.1828 35.816919,80.00016 79.999723,80.00029 44.182803,-1.3e-4 79.999928,-35.81749 79.999768,-80.00029 -8.36e-4,-17.35425 -5.64483,-34.23763 -16.080672,-48.103541"
       sodipodi:nodetypes="cccccc" /><path
       d="m -30.946678,120.97506 c 2.867655,-1.16223 3.065422,-0.54238 6.476949,2.3245 3.559848,3.48672 2.274337,2.94434 8.701855,-2.3245 6.0813967,-4.64896 3.015975,-4.64896 10.77842,-0.30993 3.8070609,2.09203 4.00482967,2.63443 7.7624457,4.64897 3.4115258,2.09204 2.2743499,0.30993 8.1579953,4.95891 4.548691,2.63441 9.097393,5.57878 13.646081,8.13568 l 27.761216,16.7045 3.411527,-14.4893 c 0,0 -17.131116,-10.35088 -27.761216,-16.47203 -3.955386,-2.32448 -9.641262,-5.8112 -13.646093,-8.1357 -7.020809,-4.88141 -5.0925623,-3.71919 -7.020809,-4.64898 -3.5598479,-1.70461 -6.42750232,-3.48674 -10.036797,-5.50128 -2.8182087,-1.70462 -4.1531508,-2.63443 -6.9713733,-4.33905 -2.2743357,-1.782117 -3.0654217,-0.8523 -5.1420057,0.85231 -2.669885,2.32448 -5.685862,5.26884 -7.366909,6.43108 -0.791072,-0.30994 0,0 -3.065423,-2.09205 -1.878801,-1.39469 -3.757615,-2.32447 -5.8342,-1.39469 l -5.685862,2.86688 c -3.26319,-2.32448 -6.279182,-4.33906 -9.492926,-7.51583 -9.641264,-9.065508 -9.839033,-9.91783 -11.173976,-9.91783 -1.532714,0 -2.867658,1.472179 -9.097394,7.825783 l -33.849267,40.286327 c 0.543867,2.55693 2.472108,13.33849 3.411502,17.44507 3.015976,-2.94434 4.894785,-6.75241 8.899613,-10.78153 7.762448,-7.59335 29.696141,-38.81418 32.514354,-36.17973 5.339769,4.9589 8.899619,8.13568 14.387727,12.47474 3.807062,2.94436 3.065424,2.94436 6.476949,0.92978 l 1.681033,-0.92978 z m -32.335299,32.77527 1.236059,5.34633 H 7.865551 l 1.0877439,-5.34633 z m 100.862389,20.99787 1.137175,-5.34633 h -79.750508 l 1.236066,5.34633 z m -60.715198,20.84289 1.186607,-5.42381 -55.127576,3.3e-4 v 5.42348 z m 55.77096,0 1.186621,-5.26884 H -1.8745878 l 0.98885377,5.26884"
       style="fill:#313131;fill-opacity:1;fill-rule:nonzero;stroke:none;stroke-width:2.01956;stroke-dasharray:none;stroke-opacity:1"
       id="path3498"
       sodipodi:nodetypes="ccccccccccccccccccccscccccccccccccccccccccccccccc" /><path
       id="path10479"
       style="opacity:1;fill:none;stroke:#313131;stroke-width:7;stroke-linecap:round;stroke-linejoin:round;stroke-miterlimit:7;stroke-dasharray:none;stroke-opacity:1"
       d="M 61.215681,88.448881 C 73.481536,105.24448 65.269867,113.8129 56.508649,122.97403 48.842973,119.85008 29.484886,123.04763 17.431893,99.136886 9.0642233,82.537118 12.800352,57.618701 37.227808,44.052866 30.326958,68.708107 48.949827,71.653298 61.215681,88.448881 Z"
       sodipodi:nodetypes="zcscz" /></g></svg>
